<svg xmlns="http://www.w3.org/2000/svg" xmlns:xlink="http://www.w3.org/1999/xlink" width="500" zoomAndPan="magnify" viewBox="0 0 375 374.999991" height="500" preserveAspectRatio="xMidYMid meet" version="1.0"><defs><g/><clipPath id="id1"><path d="M 94 180 L 127 180 L 127 232.277344 L 94 232.277344 Z M 94 180 " clip-rule="nonzero"/></clipPath><clipPath id="id2"><path d="M 65 146.027344 L 97 146.027344 L 97 198 L 65 198 Z M 65 146.027344 " clip-rule="nonzero"/></clipPath></defs><path fill="#5c99a6" d="M 126.285156 187.335938 C 125.523438 186.871094 125.28125 185.878906 125.742188 185.113281 C 126.199219 184.347656 127.191406 184.101562 127.949219 184.566406 C 128.710938 185.027344 128.957031 186.019531 128.496094 186.785156 C 128.035156 187.550781 127.046875 187.796875 126.285156 187.335938 Z M 130.191406 187.375 C 130.851562 185.949219 130.425781 184.214844 129.1875 183.257812 C 128.640625 182.835938 128.015625 182.609375 127.390625 182.5625 C 121.96875 173.550781 110.710938 170.125 101.304688 174.355469 C 100.261719 174.824219 99.839844 176.089844 100.410156 177.085938 C 100.902344 177.945312 101.960938 178.285156 102.859375 177.878906 C 110.492188 174.4375 119.632812 177.199219 124.066406 184.480469 C 123.320312 186.042969 123.863281 187.945312 125.367188 188.859375 C 127.074219 189.894531 129.324219 189.242188 130.191406 187.375 " fill-opacity="1" fill-rule="nonzero"/><path fill="#5c99a6" d="M 129.964844 208.363281 C 129.207031 207.902344 128.960938 206.90625 129.421875 206.140625 C 129.882812 205.378906 130.871094 205.132812 131.632812 205.59375 C 132.394531 206.054688 132.636719 207.050781 132.175781 207.816406 C 131.71875 208.582031 130.726562 208.824219 129.964844 208.363281 Z M 133.515625 209.007812 C 134.3125 207.925781 134.371094 206.5625 133.828125 205.464844 C 137.867188 197.355469 137.628906 187.671875 133.082031 179.757812 C 129.480469 173.488281 123.664062 169.003906 116.707031 167.132812 C 110.421875 165.4375 103.878906 166.0625 98.074219 168.871094 C 97.066406 169.355469 96.683594 170.601562 97.242188 171.570312 C 97.742188 172.441406 98.824219 172.78125 99.726562 172.347656 C 110.515625 167.140625 123.679688 171.101562 129.761719 181.683594 C 133.632812 188.425781 133.863281 196.667969 130.472656 203.59375 C 129.445312 203.695312 128.476562 204.265625 127.902344 205.21875 C 126.871094 206.9375 127.527344 209.207031 129.390625 210.074219 C 130.828125 210.738281 132.574219 210.289062 133.515625 209.007812 " fill-opacity="1" fill-rule="nonzero"/><path fill="#dab88b" d="M 112.484375 215 C 112.5 214.105469 113.234375 213.398438 114.125 213.414062 C 115.015625 213.433594 115.71875 214.171875 115.703125 215.0625 C 115.683594 215.957031 114.949219 216.667969 114.058594 216.648438 C 113.171875 216.632812 112.464844 215.894531 112.484375 215 Z M 114.402344 218.417969 C 115.960938 218.28125 117.242188 217.042969 117.445312 215.484375 C 117.535156 214.796875 117.417969 214.144531 117.148438 213.574219 C 122.199219 204.351562 119.523438 192.835938 111.175781 186.765625 C 110.25 186.09375 108.949219 186.355469 108.375 187.351562 C 107.882812 188.210938 108.121094 189.300781 108.917969 189.878906 C 115.699219 194.804688 117.890625 204.140625 113.832031 211.640625 C 112.113281 211.773438 110.746094 213.199219 110.710938 214.964844 C 110.671875 216.964844 112.359375 218.597656 114.402344 218.417969 " fill-opacity="1" fill-rule="nonzero"/><g clip-path="url(#id1)"><path fill="#dab88b" d="M 96.203125 228.71875 C 96.21875 227.824219 96.957031 227.113281 97.84375 227.132812 C 98.734375 227.152344 99.441406 227.890625 99.421875 228.78125 C 99.40625 229.675781 98.667969 230.386719 97.78125 230.367188 C 96.890625 230.351562 96.183594 229.613281 96.203125 228.71875 Z M 97.421875 232.128906 C 98.753906 232.28125 99.957031 231.648438 100.632812 230.628906 C 109.640625 230.09375 117.863281 225.042969 122.410156 217.125 C 126.007812 210.855469 126.964844 203.554688 125.101562 196.5625 C 123.417969 190.242188 119.609375 184.859375 114.285156 181.210938 C 113.363281 180.578125 112.101562 180.867188 111.542969 181.839844 C 111.042969 182.710938 111.292969 183.820312 112.117188 184.390625 C 122 191.171875 125.167969 204.617188 119.089844 215.199219 C 115.214844 221.941406 108.230469 226.261719 100.566406 226.773438 C 99.964844 225.929688 98.992188 225.375 97.878906 225.351562 C 95.886719 225.3125 94.257812 227.015625 94.445312 229.074219 C 94.585938 230.65625 95.851562 231.949219 97.421875 232.128906 " fill-opacity="1" fill-rule="nonzero"/></g><path fill="#5c99a6" d="M 81.742188 216.816406 C 82.523438 216.386719 83.5 216.671875 83.929688 217.453125 C 84.359375 218.238281 84.074219 219.222656 83.296875 219.652344 C 82.519531 220.082031 81.539062 219.800781 81.109375 219.015625 C 80.679688 218.234375 80.964844 217.25 81.742188 216.816406 Z M 79.757812 220.199219 C 80.65625 221.484375 82.363281 221.984375 83.808594 221.378906 C 84.445312 221.117188 84.949219 220.683594 85.304688 220.167969 C 95.777344 219.953125 104.359375 211.863281 105.417969 201.5625 C 105.535156 200.421875 104.65625 199.417969 103.511719 199.417969 C 102.527344 199.417969 101.707031 200.171875 101.605469 201.15625 C 100.75 209.519531 93.804688 216.097656 85.3125 216.3125 C 84.339844 214.882812 82.425781 214.40625 80.886719 215.257812 C 79.140625 216.222656 78.582031 218.511719 79.757812 220.199219 " fill-opacity="1" fill-rule="nonzero"/><path fill="#5c99a6" d="M 61.78125 209.507812 C 62.5625 209.074219 63.539062 209.359375 63.96875 210.144531 C 64.398438 210.925781 64.117188 211.910156 63.335938 212.34375 C 62.558594 212.773438 61.578125 212.488281 61.148438 211.707031 C 60.71875 210.921875 61.003906 209.9375 61.78125 209.507812 Z M 59.453125 212.273438 C 59.988281 213.507812 61.132812 214.242188 62.351562 214.316406 C 67.316406 221.890625 75.78125 226.519531 84.875 226.519531 C 92.078125 226.519531 98.847656 223.703125 103.941406 218.582031 C 108.542969 213.957031 111.277344 207.949219 111.761719 201.492188 C 111.84375 200.375 110.964844 199.417969 109.847656 199.417969 C 108.847656 199.417969 108.011719 200.191406 107.9375 201.195312 C 107.03125 213.1875 97.03125 222.667969 84.875 222.667969 C 77.128906 222.667969 69.914062 218.746094 65.640625 212.332031 C 66.066406 211.386719 66.058594 210.261719 65.523438 209.28125 C 64.558594 207.527344 62.277344 206.964844 60.597656 208.152344 C 59.304688 209.070312 58.820312 210.816406 59.453125 212.273438 " fill-opacity="1" fill-rule="nonzero"/><path fill="#dab88b" d="M 64.808594 190.972656 C 65.566406 191.433594 65.8125 192.429688 65.351562 193.191406 C 64.890625 193.957031 63.902344 194.203125 63.140625 193.742188 C 62.378906 193.277344 62.136719 192.285156 62.597656 191.519531 C 63.054688 190.753906 64.046875 190.507812 64.808594 190.972656 Z M 60.902344 190.929688 C 60.242188 192.355469 60.664062 194.09375 61.90625 195.046875 C 62.453125 195.46875 63.078125 195.695312 63.703125 195.746094 C 69.121094 204.753906 80.382812 208.179688 89.789062 203.949219 C 90.832031 203.480469 91.253906 202.214844 90.683594 201.21875 C 90.191406 200.363281 89.132812 200.023438 88.234375 200.425781 C 80.601562 203.867188 71.457031 201.109375 67.027344 193.824219 C 67.769531 192.265625 67.230469 190.359375 65.722656 189.445312 C 64.019531 188.410156 61.765625 189.066406 60.902344 190.929688 " fill-opacity="1" fill-rule="nonzero"/><path fill="#dab88b" d="M 61.125 169.941406 C 61.886719 170.402344 62.132812 171.398438 61.671875 172.164062 C 61.210938 172.929688 60.222656 173.171875 59.460938 172.710938 C 58.699219 172.25 58.457031 171.253906 58.914062 170.488281 C 59.375 169.726562 60.367188 169.480469 61.125 169.941406 Z M 57.578125 169.296875 C 56.78125 170.378906 56.722656 171.742188 57.265625 172.839844 C 53.222656 180.949219 53.464844 190.632812 58.011719 198.546875 C 61.613281 204.816406 67.429688 209.300781 74.386719 211.175781 C 80.671875 212.867188 87.214844 212.246094 93.019531 209.4375 C 94.027344 208.949219 94.410156 207.703125 93.851562 206.734375 C 93.351562 205.863281 92.265625 205.523438 91.363281 205.960938 C 80.578125 211.167969 67.414062 207.203125 61.332031 196.621094 C 57.460938 189.878906 57.230469 181.636719 60.621094 174.710938 C 61.648438 174.609375 62.613281 174.039062 63.1875 173.085938 C 64.222656 171.367188 63.566406 169.101562 61.699219 168.234375 C 60.261719 167.566406 58.519531 168.015625 57.578125 169.296875 " fill-opacity="1" fill-rule="nonzero"/><path fill="#5c99a6" d="M 78.609375 163.304688 C 78.59375 164.199219 77.855469 164.910156 76.96875 164.890625 C 76.078125 164.875 75.371094 164.132812 75.390625 163.242188 C 75.410156 162.347656 76.144531 161.636719 77.03125 161.65625 C 77.921875 161.671875 78.628906 162.410156 78.609375 163.304688 Z M 76.691406 159.886719 C 75.132812 160.023438 73.851562 161.261719 73.648438 162.820312 C 73.558594 163.507812 73.675781 164.160156 73.945312 164.730469 C 68.890625 173.953125 71.570312 185.46875 79.917969 191.539062 C 80.84375 192.214844 82.144531 191.949219 82.71875 190.953125 C 83.210938 190.09375 82.972656 189.003906 82.175781 188.425781 C 75.394531 183.5 73.203125 174.164062 77.261719 166.664062 C 78.980469 166.53125 80.347656 165.109375 80.382812 163.339844 C 80.421875 161.339844 78.730469 159.707031 76.691406 159.886719 " fill-opacity="1" fill-rule="nonzero"/><g clip-path="url(#id2)"><path fill="#5c99a6" d="M 94.890625 149.585938 C 94.871094 150.480469 94.136719 151.191406 93.246094 151.171875 C 92.359375 151.15625 91.652344 150.417969 91.671875 149.523438 C 91.6875 148.628906 92.421875 147.917969 93.3125 147.9375 C 94.199219 147.957031 94.90625 148.691406 94.890625 149.585938 Z M 93.671875 146.175781 C 92.339844 146.027344 91.136719 146.65625 90.460938 147.675781 C 81.453125 148.214844 73.230469 153.265625 68.683594 161.179688 C 65.082031 167.449219 64.128906 174.75 65.992188 181.742188 C 67.675781 188.066406 71.484375 193.445312 76.804688 197.097656 C 77.726562 197.726562 78.992188 197.4375 79.550781 196.46875 C 80.050781 195.597656 79.800781 194.484375 78.976562 193.917969 C 69.09375 187.132812 65.925781 173.691406 72.003906 163.105469 C 75.878906 156.363281 82.863281 152.042969 90.527344 151.53125 C 91.128906 152.375 92.101562 152.933594 93.210938 152.953125 C 95.207031 152.996094 96.835938 151.289062 96.648438 149.234375 C 96.503906 147.648438 95.242188 146.355469 93.671875 146.175781 " fill-opacity="1" fill-rule="nonzero"/></g><path fill="#dab88b" d="M 109.347656 161.488281 C 108.570312 161.917969 107.589844 161.632812 107.160156 160.851562 C 106.734375 160.070312 107.015625 159.082031 107.796875 158.652344 C 108.574219 158.222656 109.554688 158.507812 109.984375 159.289062 C 110.410156 160.074219 110.128906 161.054688 109.347656 161.488281 Z M 111.335938 158.109375 C 110.4375 156.820312 108.730469 156.320312 107.285156 156.925781 C 106.648438 157.191406 106.144531 157.621094 105.789062 158.136719 C 95.316406 158.351562 86.730469 166.441406 85.675781 176.742188 C 85.558594 177.886719 86.4375 178.886719 87.582031 178.886719 C 88.566406 178.886719 89.386719 178.136719 89.488281 177.152344 C 90.339844 168.785156 97.289062 162.210938 105.78125 161.992188 C 106.753906 163.421875 108.664062 163.902344 110.207031 163.046875 C 111.949219 162.082031 112.511719 159.792969 111.335938 158.109375 " fill-opacity="1" fill-rule="nonzero"/><path fill="#dab88b" d="M 129.308594 168.796875 C 128.53125 169.230469 127.550781 168.945312 127.121094 168.160156 C 126.691406 167.378906 126.976562 166.394531 127.757812 165.964844 C 128.535156 165.53125 129.515625 165.816406 129.941406 166.601562 C 130.371094 167.382812 130.089844 168.367188 129.308594 168.796875 Z M 131.640625 166.03125 C 131.105469 164.796875 129.957031 164.066406 128.742188 163.988281 C 123.777344 156.417969 115.3125 151.785156 106.21875 151.785156 C 99.015625 151.785156 92.246094 154.605469 87.152344 159.722656 C 82.550781 164.347656 79.816406 170.355469 79.332031 176.8125 C 79.25 177.929688 80.128906 178.886719 81.246094 178.886719 C 82.246094 178.886719 83.082031 178.113281 83.15625 177.109375 C 84.0625 165.117188 94.058594 155.640625 106.21875 155.640625 C 113.964844 155.640625 121.179688 159.558594 125.453125 165.976562 C 125.027344 166.917969 125.035156 168.046875 125.570312 169.023438 C 126.535156 170.777344 128.816406 171.34375 130.496094 170.152344 C 131.789062 169.234375 132.273438 167.488281 131.640625 166.03125 " fill-opacity="1" fill-rule="nonzero"/><g fill="#22577e" fill-opacity="1"><g transform="translate(151.457587, 180.522204)"><g><path d="M 10.296875 -29.40625 L 18.0625 -29.40625 L 28.5625 0 L 22.046875 0 L 20.15625 -5.453125 L 8.1875 -5.453125 L 6.296875 0 L -0.203125 0 Z M 18.109375 -11.125 L 14.28125 -22.265625 L 14.0625 -22.265625 L 10.25 -11.125 Z M 18.109375 -11.125 "/></g></g><g transform="translate(179.807585, 180.522204)"><g><path d="M 2.734375 -29.40625 L 8.609375 -29.40625 L 8.609375 0 L 2.734375 0 Z M 2.734375 -29.40625 "/></g></g></g><g fill="#22577e" fill-opacity="1"><g transform="translate(191.147582, 180.522204)"><g><path d="M 2.515625 -22.265625 L 8.40625 -22.265625 L 8.40625 0 L 2.515625 0 Z M 5.453125 -24.5625 C 4.503906 -24.5625 3.707031 -24.882812 3.0625 -25.53125 C 2.414062 -26.175781 2.09375 -26.976562 2.09375 -27.9375 C 2.09375 -28.882812 2.414062 -29.679688 3.0625 -30.328125 C 3.707031 -30.972656 4.503906 -31.296875 5.453125 -31.296875 C 6.410156 -31.296875 7.207031 -30.972656 7.84375 -30.328125 C 8.488281 -29.679688 8.8125 -28.882812 8.8125 -27.9375 C 8.8125 -26.976562 8.488281 -26.175781 7.84375 -25.53125 C 7.207031 -24.882812 6.410156 -24.5625 5.453125 -24.5625 Z M 5.453125 -24.5625 "/></g></g></g><g fill="#22577e" fill-opacity="1"><g transform="translate(202.06758, 180.522204)"><g><path d="M 2.515625 -22.265625 L 7.5625 -22.265625 L 8.1875 -19.734375 L 8.40625 -19.734375 C 9.125 -20.691406 9.988281 -21.421875 11 -21.921875 C 12.007812 -22.429688 13.101562 -22.6875 14.28125 -22.6875 C 15.488281 -22.6875 16.59375 -22.484375 17.59375 -22.078125 C 18.601562 -21.671875 19.460938 -21.070312 20.171875 -20.28125 C 20.890625 -19.5 21.453125 -18.554688 21.859375 -17.453125 C 22.265625 -16.347656 22.46875 -15.082031 22.46875 -13.65625 L 22.46875 0 L 16.59375 0 L 16.59375 -12.8125 C 16.59375 -14.289062 16.238281 -15.429688 15.53125 -16.234375 C 14.832031 -17.035156 13.851562 -17.4375 12.59375 -17.4375 C 11.332031 -17.4375 10.316406 -17.007812 9.546875 -16.15625 C 8.785156 -15.300781 8.40625 -14.1875 8.40625 -12.8125 L 8.40625 0 L 2.515625 0 Z M 2.515625 -22.265625 "/></g></g></g><g fill="#22577e" fill-opacity="1"><g transform="translate(226.847573, 180.522204)"><g><path d="M 9.03125 0.421875 C 7.820312 0.421875 6.734375 0.25 5.765625 -0.09375 C 4.804688 -0.445312 3.988281 -0.929688 3.3125 -1.546875 C 2.644531 -2.171875 2.132812 -2.898438 1.78125 -3.734375 C 1.4375 -4.578125 1.265625 -5.503906 1.265625 -6.515625 C 1.265625 -7.515625 1.445312 -8.4375 1.8125 -9.28125 C 2.175781 -10.125 2.71875 -10.851562 3.4375 -11.46875 C 4.164062 -12.082031 5.0625 -12.5625 6.125 -12.90625 C 7.195312 -13.257812 8.445312 -13.4375 9.875 -13.4375 L 15.125 -13.4375 L 15.125 -14.484375 C 15.125 -15.554688 14.785156 -16.347656 14.109375 -16.859375 C 13.441406 -17.378906 12.519531 -17.640625 11.34375 -17.640625 C 10.5 -17.640625 9.78125 -17.457031 9.1875 -17.09375 C 8.601562 -16.726562 8.203125 -16.28125 7.984375 -15.75 L 2.09375 -15.75 C 2.289062 -16.644531 2.632812 -17.503906 3.125 -18.328125 C 3.613281 -19.160156 4.242188 -19.894531 5.015625 -20.53125 C 5.785156 -21.175781 6.707031 -21.695312 7.78125 -22.09375 C 8.863281 -22.488281 10.117188 -22.6875 11.546875 -22.6875 C 14.515625 -22.6875 16.832031 -21.96875 18.5 -20.53125 C 20.164062 -19.101562 21 -17.019531 21 -14.28125 L 21 0 L 15.953125 0 L 15.328125 -2.515625 L 15.125 -2.515625 C 14.894531 -2.210938 14.613281 -1.882812 14.28125 -1.53125 C 13.945312 -1.1875 13.523438 -0.863281 13.015625 -0.5625 C 12.515625 -0.269531 11.9375 -0.0351562 11.28125 0.140625 C 10.625 0.328125 9.875 0.421875 9.03125 0.421875 Z M 10.5 -4.40625 C 11.875 -4.40625 12.988281 -4.789062 13.84375 -5.5625 C 14.695312 -6.332031 15.125 -7.347656 15.125 -8.609375 L 15.125 -9.234375 L 10.078125 -9.234375 C 9.015625 -9.234375 8.257812 -9.007812 7.8125 -8.5625 C 7.363281 -8.113281 7.140625 -7.570312 7.140625 -6.9375 C 7.140625 -6.207031 7.40625 -5.601562 7.9375 -5.125 C 8.46875 -4.644531 9.320312 -4.40625 10.5 -4.40625 Z M 10.5 -4.40625 "/></g></g></g><g fill="#22577e" fill-opacity="1"><g transform="translate(151.457587, 217.776286)"><g><path d="M 2.234375 -22.40625 L 7.046875 -22.40625 L 7.046875 -12.484375 L 15.046875 -22.40625 L 20.640625 -22.40625 L 11.6875 -11.359375 L 21.125 0 L 15.515625 0 L 7.046875 -10.234375 L 7.046875 0 L 2.234375 0 Z M 2.234375 -22.40625 "/></g></g></g><g fill="#22577e" fill-opacity="1"><g transform="translate(171.932553, 217.776286)"><g><path d="M 9.4375 0.3125 C 8.15625 0.3125 7.003906 0.117188 5.984375 -0.265625 C 4.960938 -0.660156 4.085938 -1.234375 3.359375 -1.984375 C 2.628906 -2.734375 2.070312 -3.648438 1.6875 -4.734375 C 1.3125 -5.828125 1.125 -7.078125 1.125 -8.484375 C 1.125 -9.890625 1.3125 -11.132812 1.6875 -12.21875 C 2.070312 -13.3125 2.628906 -14.226562 3.359375 -14.96875 C 4.085938 -15.71875 4.960938 -16.289062 5.984375 -16.6875 C 7.003906 -17.082031 8.15625 -17.28125 9.4375 -17.28125 C 10.71875 -17.28125 11.867188 -17.082031 12.890625 -16.6875 C 13.921875 -16.289062 14.796875 -15.71875 15.515625 -14.96875 C 16.242188 -14.226562 16.800781 -13.3125 17.1875 -12.21875 C 17.570312 -11.132812 17.765625 -9.890625 17.765625 -8.484375 C 17.765625 -7.078125 17.570312 -5.828125 17.1875 -4.734375 C 16.800781 -3.648438 16.242188 -2.734375 15.515625 -1.984375 C 14.796875 -1.234375 13.921875 -0.660156 12.890625 -0.265625 C 11.867188 0.117188 10.71875 0.3125 9.4375 0.3125 Z M 9.4375 -3.6875 C 9.945312 -3.6875 10.4375 -3.773438 10.90625 -3.953125 C 11.375 -4.128906 11.785156 -4.414062 12.140625 -4.8125 C 12.492188 -5.207031 12.769531 -5.707031 12.96875 -6.3125 C 13.175781 -6.925781 13.28125 -7.648438 13.28125 -8.484375 C 13.28125 -9.316406 13.175781 -10.035156 12.96875 -10.640625 C 12.769531 -11.242188 12.492188 -11.742188 12.140625 -12.140625 C 11.785156 -12.535156 11.375 -12.820312 10.90625 -13 C 10.4375 -13.1875 9.945312 -13.28125 9.4375 -13.28125 C 8.925781 -13.28125 8.4375 -13.1875 7.96875 -13 C 7.5 -12.820312 7.085938 -12.535156 6.734375 -12.140625 C 6.378906 -11.742188 6.097656 -11.242188 5.890625 -10.640625 C 5.691406 -10.035156 5.59375 -9.316406 5.59375 -8.484375 C 5.59375 -7.648438 5.691406 -6.925781 5.890625 -6.3125 C 6.097656 -5.707031 6.378906 -5.207031 6.734375 -4.8125 C 7.085938 -4.414062 7.5 -4.128906 7.96875 -3.953125 C 8.4375 -3.773438 8.925781 -3.6875 9.4375 -3.6875 Z M 9.4375 -3.6875 "/></g></g></g><g fill="#22577e" fill-opacity="1"><g transform="translate(190.80791, 217.776286)"><g><path d="M 0 -16.953125 L 4.796875 -16.953125 L 8.640625 -4.640625 L 8.796875 -4.640625 L 12.640625 -16.953125 L 17.4375 -16.953125 L 11.515625 0 L 5.921875 0 Z M 0 -16.953125 "/></g></g></g><g fill="#22577e" fill-opacity="1"><g transform="translate(208.243624, 217.776286)"><g><path d="M 6.875 0.3125 C 5.957031 0.3125 5.128906 0.179688 4.390625 -0.078125 C 3.660156 -0.347656 3.039062 -0.71875 2.53125 -1.1875 C 2.019531 -1.65625 1.628906 -2.207031 1.359375 -2.84375 C 1.085938 -3.488281 0.953125 -4.191406 0.953125 -4.953125 C 0.953125 -5.722656 1.09375 -6.425781 1.375 -7.0625 C 1.65625 -7.707031 2.070312 -8.265625 2.625 -8.734375 C 3.175781 -9.203125 3.859375 -9.566406 4.671875 -9.828125 C 5.484375 -10.097656 6.429688 -10.234375 7.515625 -10.234375 L 11.515625 -10.234375 L 11.515625 -11.046875 C 11.515625 -11.847656 11.257812 -12.445312 10.75 -12.84375 C 10.238281 -13.238281 9.535156 -13.4375 8.640625 -13.4375 C 8.003906 -13.4375 7.460938 -13.296875 7.015625 -13.015625 C 6.566406 -12.742188 6.253906 -12.40625 6.078125 -12 L 1.59375 -12 C 1.75 -12.6875 2.007812 -13.34375 2.375 -13.96875 C 2.75 -14.59375 3.226562 -15.148438 3.8125 -15.640625 C 4.40625 -16.140625 5.113281 -16.535156 5.9375 -16.828125 C 6.757812 -17.128906 7.710938 -17.28125 8.796875 -17.28125 C 11.054688 -17.28125 12.820312 -16.734375 14.09375 -15.640625 C 15.363281 -14.554688 16 -12.96875 16 -10.875 L 16 0 L 12.15625 0 L 11.6875 -1.921875 L 11.515625 -1.921875 C 11.347656 -1.679688 11.132812 -1.425781 10.875 -1.15625 C 10.625 -0.894531 10.304688 -0.648438 9.921875 -0.421875 C 9.535156 -0.203125 9.09375 -0.0234375 8.59375 0.109375 C 8.09375 0.242188 7.519531 0.3125 6.875 0.3125 Z M 8 -3.359375 C 9.039062 -3.359375 9.882812 -3.648438 10.53125 -4.234375 C 11.1875 -4.828125 11.515625 -5.601562 11.515625 -6.5625 L 11.515625 -7.046875 L 7.6875 -7.046875 C 6.875 -7.046875 6.296875 -6.875 5.953125 -6.53125 C 5.609375 -6.1875 5.4375 -5.769531 5.4375 -5.28125 C 5.4375 -4.726562 5.640625 -4.269531 6.046875 -3.90625 C 6.453125 -3.539062 7.101562 -3.359375 8 -3.359375 Z M 8 -3.359375 "/></g></g></g><g fill="#22577e" fill-opacity="1"><g transform="translate(225.999257, 217.776286)"><g><path d="M 2.078125 -22.40625 L 6.5625 -22.40625 L 6.5625 0 L 2.078125 0 Z M 2.078125 -22.40625 "/></g></g></g><g fill="#22577e" fill-opacity="1"><g transform="translate(234.637131, 217.776286)"><g><path d="M 9.4375 0.3125 C 8.15625 0.3125 7.003906 0.117188 5.984375 -0.265625 C 4.960938 -0.660156 4.085938 -1.234375 3.359375 -1.984375 C 2.628906 -2.734375 2.070312 -3.648438 1.6875 -4.734375 C 1.3125 -5.828125 1.125 -7.078125 1.125 -8.484375 C 1.125 -9.890625 1.3125 -11.132812 1.6875 -12.21875 C 2.070312 -13.3125 2.628906 -14.226562 3.359375 -14.96875 C 4.085938 -15.71875 4.960938 -16.289062 5.984375 -16.6875 C 7.003906 -17.082031 8.15625 -17.28125 9.4375 -17.28125 C 10.675781 -17.28125 11.796875 -17.070312 12.796875 -16.65625 C 13.796875 -16.238281 14.65625 -15.648438 15.375 -14.890625 C 16.09375 -14.140625 16.640625 -13.242188 17.015625 -12.203125 C 17.398438 -11.171875 17.59375 -10.035156 17.59375 -8.796875 C 17.59375 -8.566406 17.582031 -8.34375 17.5625 -8.125 C 17.539062 -7.914062 17.519531 -7.722656 17.5 -7.546875 C 17.476562 -7.359375 17.457031 -7.191406 17.4375 -7.046875 L 5.765625 -7.046875 C 5.929688 -6.078125 6.300781 -5.273438 6.875 -4.640625 C 7.457031 -4.003906 8.3125 -3.6875 9.4375 -3.6875 C 10.3125 -3.6875 10.957031 -3.828125 11.375 -4.109375 C 11.789062 -4.398438 12.160156 -4.789062 12.484375 -5.28125 L 17.28125 -5.28125 C 17.082031 -4.550781 16.785156 -3.847656 16.390625 -3.171875 C 16.003906 -2.503906 15.492188 -1.910156 14.859375 -1.390625 C 14.234375 -0.867188 13.472656 -0.453125 12.578125 -0.140625 C 11.679688 0.160156 10.632812 0.3125 9.4375 0.3125 Z M 12.953125 -10.40625 C 12.867188 -10.757812 12.734375 -11.109375 12.546875 -11.453125 C 12.367188 -11.796875 12.132812 -12.101562 11.84375 -12.375 C 11.5625 -12.65625 11.21875 -12.875 10.8125 -13.03125 C 10.40625 -13.195312 9.945312 -13.28125 9.4375 -13.28125 C 8.394531 -13.28125 7.578125 -13 6.984375 -12.4375 C 6.398438 -11.882812 5.992188 -11.207031 5.765625 -10.40625 Z M 12.953125 -10.40625 "/></g></g></g><g fill="#22577e" fill-opacity="1"><g transform="translate(253.352535, 217.776286)"><g><path d="M 0 -16.953125 L 4.796875 -16.953125 L 8.640625 -4.640625 L 8.796875 -4.640625 L 12.640625 -16.953125 L 17.4375 -16.953125 L 11.515625 0 L 5.921875 0 Z M 0 -16.953125 "/></g></g></g><g fill="#22577e" fill-opacity="1"><g transform="translate(270.788249, 217.776286)"><g><path d="M 6.875 0.3125 C 5.957031 0.3125 5.128906 0.179688 4.390625 -0.078125 C 3.660156 -0.347656 3.039062 -0.71875 2.53125 -1.1875 C 2.019531 -1.65625 1.628906 -2.207031 1.359375 -2.84375 C 1.085938 -3.488281 0.953125 -4.191406 0.953125 -4.953125 C 0.953125 -5.722656 1.09375 -6.425781 1.375 -7.0625 C 1.65625 -7.707031 2.070312 -8.265625 2.625 -8.734375 C 3.175781 -9.203125 3.859375 -9.566406 4.671875 -9.828125 C 5.484375 -10.097656 6.429688 -10.234375 7.515625 -10.234375 L 11.515625 -10.234375 L 11.515625 -11.046875 C 11.515625 -11.847656 11.257812 -12.445312 10.75 -12.84375 C 10.238281 -13.238281 9.535156 -13.4375 8.640625 -13.4375 C 8.003906 -13.4375 7.460938 -13.296875 7.015625 -13.015625 C 6.566406 -12.742188 6.253906 -12.40625 6.078125 -12 L 1.59375 -12 C 1.75 -12.6875 2.007812 -13.34375 2.375 -13.96875 C 2.75 -14.59375 3.226562 -15.148438 3.8125 -15.640625 C 4.40625 -16.140625 5.113281 -16.535156 5.9375 -16.828125 C 6.757812 -17.128906 7.710938 -17.28125 8.796875 -17.28125 C 11.054688 -17.28125 12.820312 -16.734375 14.09375 -15.640625 C 15.363281 -14.554688 16 -12.96875 16 -10.875 L 16 0 L 12.15625 0 L 11.6875 -1.921875 L 11.515625 -1.921875 C 11.347656 -1.679688 11.132812 -1.425781 10.875 -1.15625 C 10.625 -0.894531 10.304688 -0.648438 9.921875 -0.421875 C 9.535156 -0.203125 9.09375 -0.0234375 8.59375 0.109375 C 8.09375 0.242188 7.519531 0.3125 6.875 0.3125 Z M 8 -3.359375 C 9.039062 -3.359375 9.882812 -3.648438 10.53125 -4.234375 C 11.1875 -4.828125 11.515625 -5.601562 11.515625 -6.5625 L 11.515625 -7.046875 L 7.6875 -7.046875 C 6.875 -7.046875 6.296875 -6.875 5.953125 -6.53125 C 5.609375 -6.1875 5.4375 -5.769531 5.4375 -5.28125 C 5.4375 -4.726562 5.640625 -4.269531 6.046875 -3.90625 C 6.453125 -3.539062 7.101562 -3.359375 8 -3.359375 Z M 8 -3.359375 "/></g></g></g></svg>